<svg xmlns="http://www.w3.org/2000/svg" viewBox="0 0 1200 560">
<style>
.t{font-family:Arial,Helvetica,sans-serif;fill:#1F2A2A}.s{fill:#F4F7F4;stroke:#C9D4CA;stroke-width:2}.h{fill:#647D6A}.l{stroke:#C9D4CA;stroke-width:3;fill:none}
</style>
<text x="600" y="55" text-anchor="middle" class="t" font-size="30" font-weight="700">Research Practice</text>
<path d="M600 75v70M250 145h700M250 145v50M600 145v50M950 145v50" class="l"/>
<g><rect x="100" y="195" rx="24" width="300" height="250" class="s"/><circle cx="250" cy="245" r="32" class="h" opacity=".14"/>
<text x="250" y="255" text-anchor="middle" class="t" font-size="22" font-weight="700">Capacity</text>
<text x="250" y="315" text-anchor="middle" class="t" font-size="18">Framework contracts</text><text x="250" y="352" text-anchor="middle" class="t" font-size="18">Researcher pool</text><text x="250" y="389" text-anchor="middle" class="t" font-size="18">Dedicated researchers</text></g>
<g><rect x="450" y="195" rx="24" width="300" height="250" class="s"/><circle cx="600" cy="245" r="32" class="h" opacity=".14"/>
<text x="600" y="255" text-anchor="middle" class="t" font-size="22" font-weight="700">Participant Access</text>
<text x="600" y="315" text-anchor="middle" class="t" font-size="18">Advisors Club</text><text x="600" y="352" text-anchor="middle" class="t" font-size="18">Employee pool</text><text x="600" y="389" text-anchor="middle" class="t" font-size="18">Digital intercepts</text></g>
<g><rect x="800" y="195" rx="24" width="300" height="250" class="s"/><circle cx="950" cy="245" r="32" class="h" opacity=".14"/>
<text x="950" y="255" text-anchor="middle" class="t" font-size="22" font-weight="700">Infrastructure</text>
<text x="950" y="315" text-anchor="middle" class="t" font-size="18">Annual tool screening</text><text x="950" y="352" text-anchor="middle" class="t" font-size="18">Tool consolidation</text><text x="950" y="389" text-anchor="middle" class="t" font-size="18">Repository & workflows</text></g>
<path d="M250 445v50M600 445v50M950 445v50M250 495h700" class="l"/>
<text x="600" y="535" text-anchor="middle" class="t" font-size="24" font-weight="700">Product Teams</text>
</svg>